<svg id="Layer_1" data-name="Layer 1" xmlns="http://www.w3.org/2000/svg" viewBox="0 0 483.77 172.84"><defs><style>.cls-1{fill:#8e4e9e;}.cls-2{fill:#b565a7;}</style></defs><title>kata logo ljubiÄasti</title><path class="cls-1" d="M92.17,179.44a.9.9,0,0,1-.64-.26l-85-85a.92.92,0,0,1,0-1.29l85-85a.89.89,0,0,1,1.28,0l85,85a.92.92,0,0,1,0,1.29l-85,85A.9.9,0,0,1,92.17,179.44ZM63.81,145.08c-.69,0-3.65-.77-3.93-.11s2.2,2.61,2.72,3.13l28.32,28.32a1.76,1.76,0,0,0,2.5,0l40.11-40.11-1.08,0H132a21.23,21.23,0,0,1-6.61-1.09,2.1,2.1,0,0,0-.56-.08,1.74,1.74,0,0,0-1.24.51L92.81,166.45a.92.92,0,0,1-1.28,0L71.1,146a1.77,1.77,0,0,0-1.24-.52l-.65,0-.75,0a22.88,22.88,0,0,1-4.3-.43A1.45,1.45,0,0,0,63.81,145.08Zm16-2.37a1.9,1.9,0,0,0-.87.22,19.71,19.71,0,0,1-3.6,1.54c-.58.19-2,.43-2.06,1-.06.39.94,1.44,1.38,1.88l16.3,16.31a1.79,1.79,0,0,0,2.5,0L121.1,136a1.72,1.72,0,0,0,.5-1.49,1.74,1.74,0,0,0-.89-1.29,30.85,30.85,0,0,1-3.22-2,1.74,1.74,0,0,0-2.29.17L92.81,153.76a.92.92,0,0,1-1.28,0L81,143.21A1.66,1.66,0,0,0,79.77,142.71Zm9.07-32a1.77,1.77,0,0,0-1.78,1.76V131a4.19,4.19,0,0,1,0,.73c0,.14-.05.28-.07.43a14.75,14.75,0,0,1-4.29,8,1.84,1.84,0,0,0-.56,1.29,1.73,1.73,0,0,0,.51,1.23L90.92,151a1.76,1.76,0,0,0,2.5,0l21.69-21.69-.58-.51-.11,0a.81.81,0,0,1-.34-.21c-.41-.46-.81-.92-1.21-1.39s-.76-.81-1.11-1.21a.78.78,0,0,1-.11-.18l0-.06-.19-.22a53.18,53.18,0,0,0-7.89-8.06,36.57,36.57,0,0,0-14.33-6.73A1.69,1.69,0,0,0,88.84,110.68ZM92.17,10.09a1.75,1.75,0,0,0-1.25.52L9.26,92.27a1.77,1.77,0,0,0,0,2.49L53.48,139a2.24,2.24,0,0,0,.34.27c5.15,3.19,10.08,4.81,14.66,4.81H69a19.82,19.82,0,0,0,10.53-3.23,2.29,2.29,0,0,0,.32-.28.75.75,0,0,1,.15-.13,12.63,12.63,0,0,0,1.07-.78l.32-.29.15-.13c.16-.16.33-.32.49-.49l.14-.1,0,0a13.23,13.23,0,0,0,3.36-6.87,5.21,5.21,0,0,0,.06-.83V111.82a1.77,1.77,0,0,0-1.73-1.77h-.71c-.73,0-1.46,0-2.17.09l-.48.05a1.78,1.78,0,0,0-1.59,1.76v15.18a8.44,8.44,0,0,1-4,7.2l-.07,0,0,0a13.28,13.28,0,0,1-7.19,2,15,15,0,0,1-8.87-2.91c-.22-.16-.43-.34-.64-.51L19.24,94.16a.91.91,0,0,1-.27-.64.93.93,0,0,1,.27-.65l24.2-24.2.05.12a.62.62,0,0,1,.06.42,17.19,17.19,0,0,0-.24,1.71,17.78,17.78,0,0,0,.82,7.63A20.88,20.88,0,0,0,53.8,89.71,25.46,25.46,0,0,0,61,92.23a28.79,28.79,0,0,0,5.51.64c.37,0,.73,0,1.09,0l.4,0V87.67a1.78,1.78,0,0,0-1.49-1.74,26.41,26.41,0,0,1-6.81-2.06,16.27,16.27,0,0,1-9.45-11.82,16.55,16.55,0,0,1,3.24-13.2l.4-.51h0L54,58.2,91.53,20.66a.89.89,0,0,1,1.28,0l33.33,33.26.23.22L165.1,92.87a.89.89,0,0,1,.27.65.87.87,0,0,1-.27.64L138,121.3l.82.14a13.08,13.08,0,0,0,1.34.15l.89,0a19.26,19.26,0,0,0,11.19-4l.22-.19,22.66-22.67a1.75,1.75,0,0,0,0-2.49L93.42,10.61A1.75,1.75,0,0,0,92.17,10.09ZM40.39,74.59a1.75,1.75,0,0,0-1.24.52L22,92.27a1.75,1.75,0,0,0,0,2.49l36.88,36.88.36.33a13.2,13.2,0,0,0,8.37,3A12,12,0,0,0,74.26,133a7.08,7.08,0,0,0,3.15-6.19V113a1.77,1.77,0,0,0-1.77-1.77,1.82,1.82,0,0,0-.56.09,25.92,25.92,0,0,0-4.44,2,1.74,1.74,0,0,0-.89,1.54v7.76a3.19,3.19,0,0,1-.69,2A4.39,4.39,0,0,1,67.28,126a4.11,4.11,0,0,1-1.43.26,4.44,4.44,0,0,1-2.69-.94l-.08-.07h0l-.09-.06-31-31a.92.92,0,0,1,0-1.29l11-11A1.78,1.78,0,0,0,43.26,80a19.5,19.5,0,0,1-1.14-3.94A1.75,1.75,0,0,0,40.39,74.59Zm42.71,34a32.21,32.21,0,0,1,11.24,2.16A38.57,38.57,0,0,1,105.25,117a57.16,57.16,0,0,1,7.23,7.54q.78.93,1.59,1.86a28.57,28.57,0,0,0,9.35,6.6,22,22,0,0,0,8.68,1.9,16.72,16.72,0,0,0,2.62-.21,1.72,1.72,0,0,0,1-.5l4.45-4.45-1.06,0h-.4c-.56,0-1.16,0-1.79-.07a26.29,26.29,0,0,1-8.53-2.22,41.58,41.58,0,0,1-11.91-8.36l-.93-.89-.78-.78-.93-.94c-.45-.47-.89-.94-1.34-1.4a56,56,0,0,0-8.22-7.52c-4.32-3-9.51-4.59-14-5.84A31,31,0,0,0,82,100.54a27.19,27.19,0,0,0-5.26.52,31.76,31.76,0,0,0-20.14,13.69,1.77,1.77,0,0,0,.25,2.19l2.29,2.29a1.77,1.77,0,0,0,1.25.52,1.74,1.74,0,0,0,1.37-.67A27.29,27.29,0,0,1,81.7,108.63C82.17,108.61,82.63,108.6,83.1,108.6Zm-.82-9.53c.88,0,1.76,0,2.62.12a40,40,0,0,1,7.24,1.54c4.2,1.2,9.62,3,14.32,6.65a61.48,61.48,0,0,1,7.08,6.68c.73.76,1.46,1.53,2.21,2.28l.71.71,1.12,1.09.33.3a40.87,40.87,0,0,0,10.35,7.35,24.72,24.72,0,0,0,8.24,2.37c.84.08,1.59.12,2.28.12a14.05,14.05,0,0,0,2.6-.23,1.68,1.68,0,0,0,.9-.49l1.55-1.55a1.76,1.76,0,0,0-1.24-3h-.16c-.46,0-.92.06-1.36.06s-.93,0-1.38-.06a26.42,26.42,0,0,1-13-5.5,54.29,54.29,0,0,1-6.84-6.63c-1-1.11-2.06-2.25-3.14-3.33a54.18,54.18,0,0,0-11.31-8.82,47.74,47.74,0,0,0-21.12-6.06c-1,0-1.91-.08-2.83-.08a40.9,40.9,0,0,0-17,3.43,28.32,28.32,0,0,0-13.75,13,1.75,1.75,0,0,0,.33,2l2.32,2.32a1.75,1.75,0,0,0,2.69-.24,33,33,0,0,1,9.26-8.94,32.2,32.2,0,0,1,12.84-4.81A30.23,30.23,0,0,1,82.28,99.07ZM66.53,116.8a1.74,1.74,0,0,0-1.21.5,26.7,26.7,0,0,0-2.82,3.19,1.78,1.78,0,0,0,.19,2.28l1.14,1.13.06,0a1.18,1.18,0,0,1,.18.13,2.74,2.74,0,0,0,1.75.63,2.6,2.6,0,0,0,.93-.17,2.74,2.74,0,0,0,.69-.38,2.34,2.34,0,0,0,.87-1.87v-3.69A1.78,1.78,0,0,0,66.53,116.8ZM92.17,33a.87.87,0,0,1,.64.27L108.6,49.07a1.15,1.15,0,0,1,.22.2l43.59,43.6a.93.93,0,0,1,.27.65.91.91,0,0,1-.27.64l-21.71,21.7a1.77,1.77,0,0,0,.4,2.8,26,26,0,0,0,2.62,1.24c.52.22,1,.41,1.48.57a1.77,1.77,0,0,0,.6.11,1.73,1.73,0,0,0,1.25-.52l25.3-25.3a1.76,1.76,0,0,0,0-2.49L124.07,54l-.72-.73-29.93-30a1.79,1.79,0,0,0-2.5,0L55.85,58.34l0,.06a1.09,1.09,0,0,1-.13.17,14.94,14.94,0,0,0-.26,20.56,19.54,19.54,0,0,0,10.46,5.21,1.34,1.34,0,0,0,.35,0A1.78,1.78,0,0,0,68,82.61V78.35a1.76,1.76,0,0,0-1.48-1.74c-2.26-.37-4.77-1.06-6.25-3.37a7.13,7.13,0,0,1-.53-6.37l.08-.4c.09-.27.17-.56.25-.86s.13-.52.21-.79l.09-.2a1.59,1.59,0,0,0,.08-.21l0-.09,31-31A.87.87,0,0,1,92.17,33Zm28.1,30.61a1.76,1.76,0,0,0-1.41.69,50.1,50.1,0,0,0-3.63,5.85l-.68,1.22A44.46,44.46,0,0,1,103,84.93a43.47,43.47,0,0,1-7.88,4.84,1.76,1.76,0,0,0,.28,3.28,46.48,46.48,0,0,1,11.17,4.71,56.37,56.37,0,0,1,11.12,8.76c1.08,1.09,2.13,2.24,3.14,3.35a62,62,0,0,0,5.73,5.73,1.81,1.81,0,0,0,1.15.42,1.77,1.77,0,0,0,1.25-.52l20.7-20.74a1.76,1.76,0,0,0,0-2.49L121.52,64.13A1.76,1.76,0,0,0,120.27,63.62ZM44.17,83.5a1.74,1.74,0,0,0-1.23.52l-8.26,8.25a1.77,1.77,0,0,0,0,2.49L47.3,107.37a1.71,1.71,0,0,0,1.24.52,1.76,1.76,0,0,0,1.52-.88A30,30,0,0,1,60.25,96.6a1.75,1.75,0,0,0,.83-1.8,1.71,1.71,0,0,0-1.34-1.42l-.24-.06a23.78,23.78,0,0,1-13.16-8.14c-.25-.31-.49-.62-.72-.94A1.81,1.81,0,0,0,44.17,83.5ZM69.35,58.34a1.73,1.73,0,0,0-1.25.52l-1.8,1.79a1.77,1.77,0,0,0-.49,1.55,1.66,1.66,0,0,0,.94,1.26,4.39,4.39,0,0,1,1.29,1,5.75,5.75,0,0,1,1.26,2.39,6,6,0,0,1,.2,1.59v22a1.77,1.77,0,0,0,1.75,1.78,2.21,2.21,0,0,0,.37,0c1.23-.27,2.5-.49,3.77-.64a1.76,1.76,0,0,0,1.55-1.7c0-1.19,0-2.38.07-3.57l0-2.3c0-1.06.06-2.14.1-3.21.16-4.24.33-8.61-.71-12.78a15.34,15.34,0,0,0-6.13-9.32A1.75,1.75,0,0,0,69.35,58.34Zm12,32.8c.79,0,1.59,0,2.39.06h0a1.79,1.79,0,0,0,1.83-1.69c0-1.15.11-2.29.17-3.44.08-1.52.16-3,.21-4.55.2-5.31.12-11.53-2-17.43a31.3,31.3,0,0,0-7.19-11.36,1.79,1.79,0,0,0-1.27-.53,1.76,1.76,0,0,0-1.25.51L71.7,55.26a1.71,1.71,0,0,0-.51,1.35,1.8,1.8,0,0,0,.72,1.32,14.94,14.94,0,0,1,3.35,3.59c3.15,4.71,3.52,10.44,3.49,14.9,0,1.53-.07,3.09-.12,4.6,0,1.16-.08,2.32-.1,3.48l0,1.6-.06,3.25a1.76,1.76,0,0,0,1.75,1.81C80.63,91.14,81,91.14,81.37,91.14Zm32.94-33.48a1.76,1.76,0,0,0-1.27.54,40.2,40.2,0,0,0-4,5.09c-.7,1-1.38,2.09-2.06,3.13a55.8,55.8,0,0,1-6.89,9.17,32.23,32.23,0,0,1-11.58,7.54,1.78,1.78,0,0,0-1.17,1.57L87.25,86c0,1-.1,1.87-.15,2.78A1.73,1.73,0,0,0,87.59,90a1.77,1.77,0,0,0,1.28.55h0a2,2,0,0,0,.55-.08,41,41,0,0,0,6.67-2.83,42.36,42.36,0,0,0,13.3-11.07,56.07,56.07,0,0,0,4.86-7.66,42.22,42.22,0,0,1,3.86-6,1.74,1.74,0,0,0-.14-2.33l-2.4-2.4A1.75,1.75,0,0,0,114.31,57.66ZM108,51.37a1.73,1.73,0,0,0-1.21.48,19.94,19.94,0,0,0-3.18,4c-.87,1.41-1.64,2.91-2.38,4.36a41.07,41.07,0,0,1-4.09,6.82A24.53,24.53,0,0,1,88.5,74a1.8,1.8,0,0,0-1,1.67c0,1.15,0,2.34,0,3.64A1.73,1.73,0,0,0,88,80.56a1.76,1.76,0,0,0,1.25.53,1.64,1.64,0,0,0,.72-.16,29.15,29.15,0,0,0,4.53-2.58,38.29,38.29,0,0,0,10.09-11l.95-1.45a57.4,57.4,0,0,1,6.52-8.8,1.76,1.76,0,0,0,0-2.45l-2.77-2.77A1.77,1.77,0,0,0,108,51.37ZM64.66,64.46a3.7,3.7,0,0,0-2.4.9,1.6,1.6,0,0,0-.34.42c-.84,1.41-2,4.15-.35,6.71A6.3,6.3,0,0,0,65.88,75a2.21,2.21,0,0,0,.37,0h0A1.78,1.78,0,0,0,68,73.27V67.78a4,4,0,0,0-1.75-2.9A3.14,3.14,0,0,0,64.66,64.46ZM92.17,35.51a1.79,1.79,0,0,0-1.25.52L77.79,49.16a1.78,1.78,0,0,0,0,2.52,32.32,32.32,0,0,1,4.42,5.53A34.07,34.07,0,0,1,87,70.47,1.78,1.78,0,0,0,88.79,72h0a1.7,1.7,0,0,0,.87-.24,21.12,21.12,0,0,0,3.21-2.28c3.34-2.88,5.34-6.47,7.43-10.53a30.45,30.45,0,0,1,5.47-8,1.76,1.76,0,0,0,.53-1.25,1.79,1.79,0,0,0-.52-1.25L93.42,36A1.79,1.79,0,0,0,92.17,35.51Z" transform="translate(-5.46 -6.94)"/><path class="cls-1" d="M177.81,91.52,94,7.69a2.56,2.56,0,0,0-3.62,0L6.12,91.93a2.25,2.25,0,0,0,0,3.18l83.7,83.69a3.32,3.32,0,0,0,4.7,0l83.29-83.29A2.81,2.81,0,0,0,177.81,91.52Zm-46.59,45.76L93.44,175.06a1.8,1.8,0,0,1-2.54,0L61.18,145.35a25,25,0,0,0,7.28,1.14h.79c.3,0,.61,0,.91-.06h0l4.14-.68a21.94,21.94,0,0,0,5.58-2.28l12.28,12.28,24.2-24.2a31.91,31.91,0,0,0,4.84,3h0L124.6,136h0A22.8,22.8,0,0,0,131.22,137.28Zm-48.54,4.14c.22-.19.42-.38.62-.57a15.68,15.68,0,0,0,4.57-8.56c0-.16,0-.31.08-.46A6.36,6.36,0,0,0,88,131V111.44a35.53,35.53,0,0,1,15,6.77,52.16,52.16,0,0,1,7.74,7.91l.1.12a1.51,1.51,0,0,0,.23.35c.35.41.74.83,1.1,1.21l1.23,1.4a2,2,0,0,0,.26.24L92.17,150.91ZM144.46,124l-9.62,9.63a17.08,17.08,0,0,1-2.74.23,21,21,0,0,1-8.31-1.82,27.63,27.63,0,0,1-9-6.35l-1.59-1.85a57,57,0,0,0-7.35-7.66,39.76,39.76,0,0,0-11.18-6.35,33.31,33.31,0,0,0-11.57-2.22c-.49,0-1,0-1.45,0a28.14,28.14,0,0,0-21.17,11.53L51.22,110h0A27.3,27.3,0,0,1,64.77,96.88,39.86,39.86,0,0,1,81.4,93.54c.91,0,1.84,0,2.78.08a46.75,46.75,0,0,1,20.7,5.93A53.23,53.23,0,0,1,116,108.22c1.05,1.06,2.09,2.18,3.12,3.31a54.68,54.68,0,0,0,7,6.73,27.41,27.41,0,0,0,13.55,5.7c.48,0,1,.06,1.46.06h3.38S144.47,124,144.46,124Zm-77.1-1.77a1.41,1.41,0,0,1-.49,1.12,2.23,2.23,0,0,1-.45.25,1.81,1.81,0,0,1-1.73-.3,1.61,1.61,0,0,0-.3-.21l-1.52-1.52a24.71,24.71,0,0,1,4.49-4.87ZM61.61,94.73a31.14,31.14,0,0,0-12.88,12.74L35.84,94.58a1.5,1.5,0,0,1,0-2.13L44.3,84a20.34,20.34,0,0,0,1.31,1.78,24.69,24.69,0,0,0,13.65,8.46C60.08,94.43,60.86,94.6,61.61,94.73Zm5.46-20.48c-2.24-.34-3.82-.89-4.71-2.27-1.38-2.16-.34-4.56.44-5.83a2.72,2.72,0,0,1,1.86-.75,2.27,2.27,0,0,1,1.13.3,2.92,2.92,0,0,1,1.28,2.08Zm50.75-12.47a40.44,40.44,0,0,0-4.4,6.7A55.18,55.18,0,0,1,108.65,76a41.61,41.61,0,0,1-13,10.83A39.81,39.81,0,0,1,88,89.94c0-1.29.12-2.58.19-3.87l.1-1.86c.1-1.6.12-2.76.15-3.63,0-2,0-3.82,0-5.51a25.46,25.46,0,0,0,9.5-7.43,42,42,0,0,0,4.18-7c.73-1.43,1.49-2.91,2.35-4.3A18.26,18.26,0,0,1,108.05,52l9.77,9.78Zm-1.76,8.84a42.5,42.5,0,0,1,4.14-6.47l29.37,29.37-21.8,21.84a54.89,54.89,0,0,1-6.25-6.14c-1-1.12-2.07-2.27-3.16-3.36a57.69,57.69,0,0,0-11.31-8.92,48.72,48.72,0,0,0-13.64-5.37h0a44.29,44.29,0,0,0,22-19.73Zm-10.36-21a29.94,29.94,0,0,0-6.24,8.84c-2,4-4,7.48-7.21,10.25a20.59,20.59,0,0,1-4.12,2.76h0A35.27,35.27,0,0,0,83,56.71a32.67,32.67,0,0,0-5.14-6.27,0,0,0,0,1,0,0L91.1,37.19a1.51,1.51,0,0,1,2.14,0L105.7,49.65ZM83.06,64.41c2.08,5.75,2.16,11.85,2,17.07-.06,1.51-.14,3-.22,4.54s-.15,2.85-.2,4.27c-1.1-.06-2.18-.1-3.24-.1-.63,0-1.29,0-2,0a28.73,28.73,0,0,0-3.38.24,43.76,43.76,0,0,0-5.53,1v-23a6.74,6.74,0,0,0-.24-1.85,6.58,6.58,0,0,0-1.47-2.77,5.31,5.31,0,0,0-2.66-1.56l9.41-9.41A30.35,30.35,0,0,1,83.06,64.41ZM174,94.5l-22.2,22.2a1.29,1.29,0,0,1-.17.16A18.35,18.35,0,0,1,141,120.67l-.92,0-.23,0-3.76-.84-.16,0c-.58-.2-1.2-.43-1.86-.7s-1.23-.53-1.83-.84a1.38,1.38,0,0,1-.34-2.21l21.5-21.48a1.39,1.39,0,0,0,0-2L109.59,48.72a1.37,1.37,0,0,0-.32-.32L93.15,32.27a1.39,1.39,0,0,0-2,0L59.82,63.64s-.4.94-.68,1.57c-.11.27-.36,1.14-.36,1.14a9.08,9.08,0,0,0,.71,7.4c1.54,2.41,4,3.27,6.44,3.72a1.38,1.38,0,0,1,1.14,1.36V90.52L65.63,91.9a30.48,30.48,0,0,1-4.43-.6,24.57,24.57,0,0,1-7-2.42A20,20,0,0,1,45,78.24a16.44,16.44,0,0,1-1.08-3.78,17.85,17.85,0,0,1-.73-6.18l-1.8,1.78a1.37,1.37,0,0,0-.4.78,18.39,18.39,0,0,0,0,3.78A19.76,19.76,0,0,0,42.25,80a1.41,1.41,0,0,1-.3,1.5l-11,11a1.39,1.39,0,0,0,0,2l31.4,31.4.25.16.06,0a5.47,5.47,0,0,0,3.21,1.09,4.84,4.84,0,0,0,1.77-.33,5.4,5.4,0,0,0,2.19-1.57,4.18,4.18,0,0,0,.9-2.65v-7.43a1.38,1.38,0,0,1,.71-1.22,24.57,24.57,0,0,1,5-2l.13,0,3.26-.68.11,0c.4-.06.78-.1,1.14-.13.68-.06,1.38-.09,2.09-.09h.13a1.39,1.39,0,0,1,1.36,1.39v18.51a3.56,3.56,0,0,1,0,.68,12.36,12.36,0,0,1-3.06,6.32l-.07.05-.11.09,0,.05-.45.44-.16.15c-.06.06-.13.13-.26.24a11.94,11.94,0,0,1-1,.71A1.64,1.64,0,0,0,79,140a18.78,18.78,0,0,1-10.1,3.12h-.46c-4.38,0-9.13-1.56-14.11-4.63a1.71,1.71,0,0,1-.26-.21L10.33,94.5a1.39,1.39,0,0,1,0-2L91.19,11.68a1.39,1.39,0,0,1,2,0L174,92.54A1.39,1.39,0,0,1,174,94.5Z" transform="translate(-5.46 -6.94)"/><path class="cls-1" d="M49.37,50.92a4.43,4.43,0,0,1-1.91,2.31,4,4,0,0,1-2.72.53A30.18,30.18,0,0,0,41.82,78.4c.64,2,3.85,1.81,3.2-.16l-.22-.6a27.2,27.2,0,0,1,4.37-24.76,1.71,1.71,0,0,0,.22-2Z" transform="translate(-5.46 -6.94)"/><path class="cls-1" d="M218.58,93.33,243.29,58c2.32-3.4,3.66-6,4-7.89s-.85-2.79-3.66-2.79V44.79h17v2.48a11,11,0,0,0-3.79.62,10.81,10.81,0,0,0-3.23,1.93,27.68,27.68,0,0,0-3.29,3.35c-1.15,1.36-2.48,3-4,4.78l-16,23a7.77,7.77,0,0,0-1.18,2.8,4,4,0,0,0,1.18,2.92l23.34,29.42a45.62,45.62,0,0,0,3.1,3.54,29.14,29.14,0,0,0,3.79,3.29,21.65,21.65,0,0,0,4.41,2.48,12.66,12.66,0,0,0,5,1v2.49H240.06v-2.49a5.16,5.16,0,0,0,3.1-.68,2.09,2.09,0,0,0,.81-1.86,6,6,0,0,0-.93-2.67c-.58-1-1.24-2-2-3.1l-17.5-22q-1.37-1.74-1.92-1.74t-1.56,1.62L219,97.3a13.15,13.15,0,0,0-2.18,4.41,21.49,21.49,0,0,0-.43,4.66v9.43a40.33,40.33,0,0,0,.25,4.9,7.55,7.55,0,0,0,1.05,3.29,4.55,4.55,0,0,0,2.36,1.8,12.38,12.38,0,0,0,4.16.56v2.49h-29.8v-2.49a11.85,11.85,0,0,0,4.1-.56,4.56,4.56,0,0,0,2.3-1.8,7.69,7.69,0,0,0,1-3.29,40.33,40.33,0,0,0,.25-4.9v-58a39.05,39.05,0,0,0-.25-4.84,8.18,8.18,0,0,0-1-3.29,4.47,4.47,0,0,0-2.3-1.86,12.09,12.09,0,0,0-4.1-.56V44.79h29.8v2.48a12.64,12.64,0,0,0-4.16.56,4.45,4.45,0,0,0-2.36,1.86A8,8,0,0,0,216.6,53a39.05,39.05,0,0,0-.25,4.84V92.58a2.82,2.82,0,0,0,.5,2C217.18,94.9,217.75,94.49,218.58,93.33Z" transform="translate(-5.46 -6.94)"/><path class="cls-1" d="M298.41,107.86a11,11,0,0,0-2.3.86,4,4,0,0,0-1.55,2.24l-1.74,4.84a43.19,43.19,0,0,0-1.49,5.4,6.14,6.14,0,0,0,.07,3.17,2.61,2.61,0,0,0,1.67,1.55,10.48,10.48,0,0,0,3.35.43v2.49H279.29v-2.49a15.28,15.28,0,0,0,5.09-.74c1.41-.5,2.44-1.74,3.11-3.74L314.8,44.66h3.72l27.32,77.59q1,2.86,3.16,3.48a21.46,21.46,0,0,0,5.78.62v2.49H324.85v-2.49q5.22,0,5.9-2.11c.46-1.4-.06-4.22-1.55-8.44L325,103.63q-1.12-2.47-4.47-1.74Zm14.28-39.24q-.75-2-1.68-1.92c-.62,0-1.14.68-1.55,1.92l-12.41,35.14a2.43,2.43,0,0,0-.13,1.3c.08.37.75.4,2,.06L320,99.54a3.76,3.76,0,0,0,2.05-1.24c.46-.58.39-1.66-.18-3.23Z" transform="translate(-5.46 -6.94)"/><path class="cls-1" d="M421.69,45q.38,3.86.81,7.7t.8,7.7h-2.85a18.75,18.75,0,0,0-1.12-4.53,13.84,13.84,0,0,0-2.48-4.16,12.27,12.27,0,0,0-4.1-3,13.71,13.71,0,0,0-6-1.18H399.1a12.38,12.38,0,0,0-4.16.56,4.14,4.14,0,0,0-2.3,1.86,8.78,8.78,0,0,0-1,3.35,40.56,40.56,0,0,0-.25,4.9v57.86a38.94,38.94,0,0,0,.25,4.84,8.63,8.63,0,0,0,1,3.29,4.14,4.14,0,0,0,2.3,1.86,12.38,12.38,0,0,0,4.16.56v2.48H369.42V126.6a12.38,12.38,0,0,0,4.16-.56,4.14,4.14,0,0,0,2.3-1.86,8.63,8.63,0,0,0,1-3.29,38.94,38.94,0,0,0,.25-4.84V58.19a40.56,40.56,0,0,0-.25-4.9,8.78,8.78,0,0,0-1-3.35,4.14,4.14,0,0,0-2.3-1.86,12.38,12.38,0,0,0-4.16-.56H361.6a13.74,13.74,0,0,0-6,1.18,12.23,12.23,0,0,0-4.09,3,12.54,12.54,0,0,0-2.42,4.16,20.05,20.05,0,0,0-1.06,4.53h-2.86q.38-3.84.81-7.7t.81-7.7Z" transform="translate(-5.46 -6.94)"/><path class="cls-1" d="M432.86,107.86a10.69,10.69,0,0,0-2.29.86A4,4,0,0,0,429,111l-1.73,4.84a40,40,0,0,0-1.49,5.4,6.06,6.06,0,0,0,.06,3.17,2.63,2.63,0,0,0,1.67,1.55,10.51,10.51,0,0,0,3.36.43v2.49H413.74v-2.49a15.24,15.24,0,0,0,5.09-.74c1.41-.5,2.44-1.74,3.11-3.74l27.31-77.21H453l27.32,77.59q1,2.86,3.16,3.48a21.46,21.46,0,0,0,5.78.62v2.49H459.31v-2.49c3.47,0,5.44-.7,5.89-2.11s-.06-4.22-1.55-8.44l-4.22-12.17q-1.11-2.47-4.47-1.74Zm14.28-39.24q-.75-2-1.68-1.92c-.62,0-1.14.68-1.55,1.92L431.5,103.76a2.43,2.43,0,0,0-.13,1.3c.08.37.75.4,2,.06l21.1-5.58a3.76,3.76,0,0,0,2.05-1.24c.46-.58.4-1.66-.18-3.23Z" transform="translate(-5.46 -6.94)"/><path class="cls-2" d="M355.83,143.56q.1,1.16.24,2.31c.09.77.17,1.54.24,2.3h-.85a5.35,5.35,0,0,0-.34-1.35,4.05,4.05,0,0,0-.74-1.25,3.72,3.72,0,0,0-1.23-.91,4.18,4.18,0,0,0-1.78-.35h-2.31a3.52,3.52,0,0,0-1.24.17,1.24,1.24,0,0,0-.69.55,2.68,2.68,0,0,0-.3,1,12.41,12.41,0,0,0-.07,1.46v17.33a12,12,0,0,0,.07,1.45,2.63,2.63,0,0,0,.3,1,1.25,1.25,0,0,0,.69.56,3.77,3.77,0,0,0,1.24.17v.74h-8.88V168a3.84,3.84,0,0,0,1.25-.17,1.23,1.23,0,0,0,.68-.56,2.63,2.63,0,0,0,.3-1,11.78,11.78,0,0,0,.08-1.45V147.5a12.2,12.2,0,0,0-.08-1.46,2.68,2.68,0,0,0-.3-1,1.21,1.21,0,0,0-.68-.55,3.59,3.59,0,0,0-1.25-.17h-2.34a4.23,4.23,0,0,0-1.79.35,3.79,3.79,0,0,0-1.22.91,3.84,3.84,0,0,0-.73,1.25,6.24,6.24,0,0,0-.31,1.35h-.86l.24-2.3c.09-.77.17-1.54.25-2.31Z" transform="translate(-5.46 -6.94)"/><path class="cls-2" d="M377.43,143.53c.07.77.14,1.53.22,2.28s.16,1.53.26,2.33h-.86a6.19,6.19,0,0,0-.31-1.36,4,4,0,0,0-.73-1.25,3.79,3.79,0,0,0-1.22-.91,4.23,4.23,0,0,0-1.79-.35h-4a3.67,3.67,0,0,0-1.23.17,1.32,1.32,0,0,0-.69.56,2.46,2.46,0,0,0-.31,1,12,12,0,0,0-.08,1.46v6.29a.64.64,0,0,0,.19.47.6.6,0,0,0,.48.21h1.12a6,6,0,0,0,1.84-.24,2.62,2.62,0,0,0,1.11-.67,2.4,2.4,0,0,0,.54-1,4.69,4.69,0,0,0,.15-1.22H373v7h-.86A4.9,4.9,0,0,0,372,157a2.29,2.29,0,0,0-.54-1,2.81,2.81,0,0,0-1.11-.65,6,6,0,0,0-1.84-.24h-1.12a.6.6,0,0,0-.48.21.63.63,0,0,0-.19.46v9a11.84,11.84,0,0,0,.08,1.46,2.31,2.31,0,0,0,.31,1,1.34,1.34,0,0,0,.69.54A3.67,3.67,0,0,0,369,168h4a4.08,4.08,0,0,0,1.79-.36,3.65,3.65,0,0,0,1.22-.91,3.79,3.79,0,0,0,.73-1.24,6.19,6.19,0,0,0,.31-1.36h.86c-.1.79-.19,1.57-.26,2.32s-.15,1.52-.22,2.29H360.07V168a3.77,3.77,0,0,0,1.24-.17,1.35,1.35,0,0,0,.71-.54,2.31,2.31,0,0,0,.31-1,11.84,11.84,0,0,0,.08-1.46V147.44a12.26,12.26,0,0,0-.08-1.47,2.36,2.36,0,0,0-.31-1,1.35,1.35,0,0,0-.71-.54,3.77,3.77,0,0,0-1.24-.17v-.74Z" transform="translate(-5.46 -6.94)"/><path class="cls-2" d="M388.87,158l7.4-10.59a7.44,7.44,0,0,0,1.21-2.36c.11-.56-.26-.84-1.1-.84v-.74h5.1v.74a3.36,3.36,0,0,0-1.14.19,3.28,3.28,0,0,0-1,.58,8.52,8.52,0,0,0-1,1c-.35.41-.74.89-1.19,1.43l-4.79,6.88a2.44,2.44,0,0,0-.36.83,1.2,1.2,0,0,0,.36.88l7,8.81c.28.34.59.7.93,1.06a9.79,9.79,0,0,0,1.14,1,5.89,5.89,0,0,0,1.32.74,3.73,3.73,0,0,0,1.48.3v.75h-9v-.75a1.6,1.6,0,0,0,.93-.2.63.63,0,0,0,.25-.56,2,2,0,0,0-.28-.8q-.27-.45-.6-.93l-5.24-6.58c-.27-.35-.46-.52-.58-.52s-.26.16-.46.48l-.33.41a3.8,3.8,0,0,0-.65,1.32,6.24,6.24,0,0,0-.14,1.4v2.82a12.26,12.26,0,0,0,.08,1.47,2.22,2.22,0,0,0,.32,1,1.36,1.36,0,0,0,.7.53,3.59,3.59,0,0,0,1.25.17v.75h-8.92v-.75a3.37,3.37,0,0,0,1.22-.17,1.37,1.37,0,0,0,.69-.53,2.36,2.36,0,0,0,.32-1,12.47,12.47,0,0,0,.07-1.47V147.39a12,12,0,0,0-.07-1.45,2.46,2.46,0,0,0-.32-1,1.32,1.32,0,0,0-.69-.56,3.6,3.6,0,0,0-1.22-.17v-.74h8.92v.74a3.84,3.84,0,0,0-1.25.17,1.31,1.31,0,0,0-.7.56,2.31,2.31,0,0,0-.32,1,11.78,11.78,0,0,0-.08,1.45V157.8a.87.87,0,0,0,.15.6C388.45,158.49,388.63,158.37,388.87,158Z" transform="translate(-5.46 -6.94)"/><path class="cls-2" d="M416.38,143.49a13.83,13.83,0,0,1,2.47.22,10.13,10.13,0,0,1,2.4.75l.82.24a3.37,3.37,0,0,0,.93.11,1.14,1.14,0,0,0,.76-.32,1.32,1.32,0,0,0,.31-1h.9v6.88h-.9A7.88,7.88,0,0,0,424,149a5,5,0,0,0-.42-1.36,5.24,5.24,0,0,0-.9-1.28,5.64,5.64,0,0,0-1.54-1.13,8.33,8.33,0,0,0-2.3-.78,13.47,13.47,0,0,0-2.42-.23,6,6,0,0,0-2.34.41,4.22,4.22,0,0,0-1.56,1.08,4.3,4.3,0,0,0-.88,1.52,5.87,5.87,0,0,0-.28,1.75,3.14,3.14,0,0,0,1,2.32,10.18,10.18,0,0,0,2.54,1.77c1,.52,2.15,1,3.35,1.49s2.34,1,3.4,1.52a6.13,6.13,0,0,1,2.53,2.14,5.45,5.45,0,0,1,.85,3,6.74,6.74,0,0,1-.67,3,7,7,0,0,1-1.82,2.32,8.52,8.52,0,0,1-2.69,1.51,9.58,9.58,0,0,1-3.24.54,14.77,14.77,0,0,1-2.49-.21,10.12,10.12,0,0,1-2.39-.72,4.57,4.57,0,0,0-.82-.28,2.75,2.75,0,0,0-.93-.11,1.18,1.18,0,0,0-.78.31,1.3,1.3,0,0,0-.34,1H408v-6.84h.81a7.71,7.71,0,0,0,.12,1.32,4.9,4.9,0,0,0,.42,1.35,5.17,5.17,0,0,0,.92,1.3,5.58,5.58,0,0,0,1.56,1.12,8.35,8.35,0,0,0,2.32.78,13.36,13.36,0,0,0,2.42.22,5.78,5.78,0,0,0,2.33-.41,4.53,4.53,0,0,0,1.56-1.06,4,4,0,0,0,.9-1.5,5.48,5.48,0,0,0,.28-1.75,3.11,3.11,0,0,0-1-2.32,11.27,11.27,0,0,0-2.55-1.79,32.89,32.89,0,0,0-3.35-1.5c-1.21-.47-2.35-1-3.42-1.49a6.54,6.54,0,0,1-2.49-2.15,5.44,5.44,0,0,1-.85-3.05,6.6,6.6,0,0,1,.67-3,7.56,7.56,0,0,1,1.8-2.35,8.28,8.28,0,0,1,2.66-1.52A9.75,9.75,0,0,1,416.38,143.49Z" transform="translate(-5.46 -6.94)"/><path class="cls-2" d="M451.62,143.56q.11,1.16.24,2.31c.09.77.17,1.54.24,2.3h-.85a5.35,5.35,0,0,0-.34-1.35,4.05,4.05,0,0,0-.74-1.25,3.72,3.72,0,0,0-1.23-.91,4.18,4.18,0,0,0-1.78-.35h-2.31a3.52,3.52,0,0,0-1.24.17,1.24,1.24,0,0,0-.69.55,2.68,2.68,0,0,0-.3,1,12.41,12.41,0,0,0-.07,1.46v17.33a12,12,0,0,0,.07,1.45,2.63,2.63,0,0,0,.3,1,1.25,1.25,0,0,0,.69.56,3.77,3.77,0,0,0,1.24.17v.74H436V168a3.84,3.84,0,0,0,1.25-.17,1.26,1.26,0,0,0,.68-.56,2.63,2.63,0,0,0,.3-1,12,12,0,0,0,.07-1.45V147.5a12.41,12.41,0,0,0-.07-1.46,2.68,2.68,0,0,0-.3-1,1.25,1.25,0,0,0-.68-.55,3.59,3.59,0,0,0-1.25-.17h-2.34a4.23,4.23,0,0,0-1.79.35,3.79,3.79,0,0,0-1.22.91,3.67,3.67,0,0,0-.73,1.25,6.24,6.24,0,0,0-.31,1.35h-.86l.24-2.3q.14-1.16.24-2.31Z" transform="translate(-5.46 -6.94)"/><path class="cls-2" d="M464.78,167.91v.75h-8.92v-.75a3.37,3.37,0,0,0,1.22-.17,1.37,1.37,0,0,0,.69-.53,2.36,2.36,0,0,0,.32-1,12.47,12.47,0,0,0,.07-1.47V147.39a12,12,0,0,0-.07-1.45,2.46,2.46,0,0,0-.32-1,1.32,1.32,0,0,0-.69-.56,3.6,3.6,0,0,0-1.22-.17v-.74h8.92v.74a3.84,3.84,0,0,0-1.25.17,1.31,1.31,0,0,0-.7.56,2.31,2.31,0,0,0-.32,1,11.78,11.78,0,0,0-.08,1.45v17.36a12.26,12.26,0,0,0,.08,1.47,2.22,2.22,0,0,0,.32,1,1.36,1.36,0,0,0,.7.53A3.59,3.59,0,0,0,464.78,167.91Z" transform="translate(-5.46 -6.94)"/><path class="cls-2" d="M481.43,167.91a4.18,4.18,0,0,0,1.78-.35,3.72,3.72,0,0,0,1.23-.91,4,4,0,0,0,.73-1.25,6.24,6.24,0,0,0,.31-1.35h.86l-.49,4.61H468.49v-.75a3.59,3.59,0,0,0,1.25-.17,1.43,1.43,0,0,0,.71-.53,2.36,2.36,0,0,0,.31-1,12.26,12.26,0,0,0,.08-1.47V147.39a11.78,11.78,0,0,0-.08-1.45,2.46,2.46,0,0,0-.31-1,1.37,1.37,0,0,0-.71-.56,3.84,3.84,0,0,0-1.25-.17v-.74h9v.74a3.77,3.77,0,0,0-1.24.17,1.33,1.33,0,0,0-.71.56,2.46,2.46,0,0,0-.32,1,12,12,0,0,0-.07,1.45v17.36a12.47,12.47,0,0,0,.07,1.47,2.36,2.36,0,0,0,.32,1,1.38,1.38,0,0,0,.71.53,3.52,3.52,0,0,0,1.24.17Z" transform="translate(-5.46 -6.94)"/></svg>